<?xml version="1.0" standalone="no"?>
<!DOCTYPE svg PUBLIC "-//W3C//DTD SVG 20010904//EN"
 "http://www.w3.org/TR/2001/REC-SVG-20010904/DTD/svg10.dtd">
<svg version="1.0" xmlns="http://www.w3.org/2000/svg"
 width="700.000000pt" height="700.000000pt" viewBox="0 0 700.000000 700.000000"
 preserveAspectRatio="xMidYMid meet">
<metadata>
Created by potrace 1.14, written by Peter Selinger 2001-2017
</metadata>
<g transform="translate(0.000000,700.000000) scale(0.100000,-0.100000)"
fill="#000000" stroke="none">
<path d="M3280 6994 c-19 -2 -84 -9 -145 -14 -645 -63 -1299 -331 -1820 -746
-147 -117 -459 -431 -569 -574 -410 -529 -654 -1132 -728 -1795 -17 -155 -17
-575 0 -730 52 -469 197 -931 418 -1327 288 -519 734 -985 1234 -1291 450
-274 920 -434 1465 -499 142 -17 586 -17 730 0 682 79 1268 318 1802 734 138
107 389 351 512 498 451 538 717 1163 803 1885 17 144 17 586 0 730 -86 723
-351 1346 -803 1885 -123 146 -374 391 -510 497 -525 408 -1100 647 -1759 729
-110 14 -556 27 -630 18z m610 -209 c376 -46 728 -150 1065 -315 863 -423
1510 -1215 1745 -2136 76 -296 104 -521 104 -834 0 -124 -6 -274 -12 -335 -74
-645 -296 -1196 -688 -1705 -114 -148 -416 -450 -564 -564 -498 -384 -1042
-608 -1660 -682 -175 -21 -552 -24 -715 -6 -758 87 -1421 393 -1947 900 -568
547 -905 1221 -1004 2007 -25 193 -25 577 0 770 78 615 303 1165 676 1647 111
144 335 377 470 490 560 469 1211 731 1950 782 108 7 457 -4 580 -19z"/>
<path d="M3345 6513 c-222 -13 -452 -51 -656 -107 -1020 -280 -1834 -1105
-2105 -2131 -133 -508 -133 -1043 2 -1555 220 -836 814 -1556 1599 -1935 419
-202 843 -298 1315 -298 118 0 260 5 315 12 609 74 1106 279 1575 649 120 95
363 338 461 462 269 339 460 715 563 1110 33 128 69 300 64 306 -2 1 -167 -60
-368 -135 -257 -97 -364 -142 -362 -151 2 -8 87 -162 189 -343 102 -180 183
-330 181 -332 -2 -2 -179 -7 -394 -11 l-390 -7 64 -385 c34 -211 61 -386 59
-388 -2 -3 -170 54 -372 126 -203 71 -370 129 -371 127 -1 -1 -34 -175 -74
-387 -39 -212 -73 -386 -74 -387 -1 -1 -139 110 -306 248 -272 224 -306 249
-317 233 -7 -9 -97 -160 -200 -335 -103 -176 -192 -318 -196 -316 -5 1 -96
151 -203 332 -107 181 -197 331 -199 333 -2 2 -140 -108 -307 -246 -180 -148
-305 -245 -309 -238 -3 6 -37 178 -74 381 -37 204 -71 373 -74 376 -3 4 -170
-51 -371 -122 -201 -71 -368 -129 -371 -129 -3 0 23 170 57 378 35 207 64 383
64 390 0 9 -49 12 -207 13 -115 1 -292 4 -395 8 l-186 6 193 343 194 343 -27
10 c-15 6 -178 67 -362 136 -184 69 -338 128 -343 132 -4 4 126 121 288 259
162 139 295 256 295 260 0 5 -133 122 -296 261 -162 139 -294 255 -292 257 3
2 162 63 354 135 192 72 357 134 366 138 14 5 -16 64 -178 351 l-194 345 389
5 c214 3 392 8 395 11 4 4 -21 172 -54 375 -33 203 -59 376 -58 384 2 13 76
-10 367 -112 200 -71 368 -125 371 -121 4 4 38 175 75 378 38 204 71 374 75
378 4 4 144 -104 310 -241 l304 -250 198 336 c109 184 198 336 198 338 0 4
-111 2 -195 -3z"/>
<path d="M3560 6514 c0 -4 88 -157 197 -340 l196 -332 221 182 c122 100 253
208 293 241 40 32 70 62 67 66 -6 11 -164 61 -293 94 -138 35 -363 72 -481 80
-52 3 -119 8 -147 11 -29 3 -53 2 -53 -2z"/>
<path d="M4574 6303 c3 -10 35 -178 71 -373 37 -195 68 -357 70 -359 6 -5 705
243 705 250 0 26 -317 242 -490 336 -97 53 -339 163 -356 163 -3 0 -3 -8 0
-17z"/>
<path d="M5456 5778 c-3 -7 -31 -173 -64 -369 l-58 -357 35 -6 c50 -8 721 -8
721 1 0 14 -156 239 -231 334 -144 180 -394 427 -403 397z"/>
<path d="M3257 5256 c-46 -17 -99 -57 -132 -99 -58 -77 -55 14 -55 -1606 0
-963 4 -1499 10 -1522 13 -48 58 -113 96 -141 17 -13 31 -26 30 -30 -2 -14 80
-90 119 -111 38 -21 56 -22 298 -25 311 -4 331 0 418 87 98 98 90 -56 87 1661
l-3 1505 -30 53 c-32 59 -80 106 -98 95 -7 -3 -9 -3 -5 2 10 11 -80 97 -127
120 -36 18 -64 20 -305 22 -203 2 -274 -1 -303 -11z m538 -192 c13 -8 28 -29
34 -46 8 -22 11 -470 11 -1470 0 -1597 4 -1495 -66 -1524 -29 -12 -76 -15
-246 -12 l-210 3 -29 33 -29 32 0 1471 0 1471 29 29 29 29 227 0 c188 0 230
-3 250 -16z m232 -36 c-3 -8 -6 -5 -6 6 -1 11 2 17 5 13 3 -3 4 -12 1 -19z m0
-2980 c-3 -8 -6 -5 -6 6 -1 11 2 17 5 13 3 -3 4 -12 1 -19z m-17 -56 c0 -5 -7
-17 -15 -28 -14 -18 -14 -17 -4 9 12 27 19 34 19 19z m-30 -55 c0 -2 -17 -19
-37 -38 l-38 -34 34 38 c33 34 41 42 41 34z m-94 -82 c-11 -8 -25 -15 -30 -15
-6 1 0 7 14 15 32 19 40 18 16 0z m-569 -31 c-3 -3 -12 -4 -19 -1 -8 3 -5 6 6
6 11 1 17 -2 13 -5z m490 0 c-3 -3 -12 -4 -19 -1 -8 3 -5 6 6 6 11 1 17 -2 13
-5z"/>
<path d="M3488 3711 c-73 -24 -128 -97 -128 -171 0 -41 29 -108 56 -132 82
-73 211 -57 271 33 54 82 30 198 -51 249 -39 23 -109 33 -148 21z"/>
<path d="M5926 4679 c-103 -182 -186 -333 -184 -334 10 -10 710 -267 714 -262
10 10 -66 296 -113 427 -52 143 -131 322 -190 428 l-40 73 -187 -332z"/>
<path d="M6171 3800 c-161 -139 -289 -256 -285 -260 5 -4 139 -119 298 -255
201 -171 292 -242 297 -233 16 31 33 268 33 458 -1 185 -18 395 -42 508 l-7
33 -294 -251z"/>
</g>
</svg>
