<svg width="73" height="73" viewBox="0 0 73 73" fill="none" xmlns="http://www.w3.org/2000/svg">
<circle cx="36.5" cy="36.5" r="31.5" fill="#DD4B4B"/>
<path d="M37 5L41.2096 12.1263L47.6026 6.86953L49.121 15.0058L56.9264 12.2526L55.5704 20.4175L63.8468 20.5L59.78 27.7087L67.529 30.6169L61.242 36L67.529 41.3831L59.78 44.2913L63.8468 51.5L55.5704 51.5825L56.9264 59.7474L49.121 56.9942L47.6026 65.1305L41.2096 59.8737L37 67L32.7904 59.8737L26.3974 65.1305L24.879 56.9942L17.0736 59.7474L18.4296 51.5825L10.1532 51.5L14.22 44.2913L6.47096 41.3831L12.758 36L6.47096 30.6169L14.22 27.7087L10.1532 20.5L18.4296 20.4175L17.0736 12.2526L24.879 15.0058L26.3974 6.86953L32.7904 12.1263L37 5Z" fill="white"/>
<circle cx="36.5" cy="36.5" r="35.5" stroke="black" stroke-width="2"/>
<g filter="url(#filter0_d_340_45011)">
<rect x="41" y="53" width="8" height="34" rx="2" transform="rotate(180 41 53)" fill="white"/>
<rect x="41" y="53" width="8" height="34" rx="2" transform="rotate(180 41 53)" stroke="black" stroke-width="2"/>
<path d="M38.81 36.095C38.81 36.4442 38.7249 36.7632 38.5546 37.0518C38.3814 37.3405 38.1505 37.5714 37.8618 37.7446C37.5732 37.9149 37.2542 38 36.905 38C36.5529 38 36.2339 37.9149 35.9482 37.7446C35.6595 37.5714 35.4301 37.3405 35.2598 37.0518C35.0866 36.7632 35 36.4443 35 36.095C35 35.7429 35.0866 35.4239 35.2598 35.1382C35.4301 34.8495 35.6595 34.6201 35.9482 34.4498C36.2339 34.2766 36.5529 34.19 36.905 34.19C37.2542 34.19 37.5732 34.2766 37.8618 34.4498C38.1505 34.6201 38.3814 34.8495 38.5546 35.1382C38.7249 35.4239 38.81 35.7429 38.81 36.095Z" fill="#DD4B4B"/>
</g>
<defs>
<filter id="filter0_d_340_45011" x="32" y="18" width="11" height="37" filterUnits="userSpaceOnUse" color-interpolation-filters="sRGB">
<feFlood flood-opacity="0" result="BackgroundImageFix"/>
<feColorMatrix in="SourceAlpha" type="matrix" values="0 0 0 0 0 0 0 0 0 0 0 0 0 0 0 0 0 0 127 0" result="hardAlpha"/>
<feOffset dx="1" dy="1"/>
<feComposite in2="hardAlpha" operator="out"/>
<feColorMatrix type="matrix" values="0 0 0 0 0 0 0 0 0 0 0 0 0 0 0 0 0 0 1 0"/>
<feBlend mode="normal" in2="BackgroundImageFix" result="effect1_dropShadow_340_45011"/>
<feBlend mode="normal" in="SourceGraphic" in2="effect1_dropShadow_340_45011" result="shape"/>
</filter>
</defs>
</svg>
