<svg width="279" height="279" viewBox="0 0 279 279" fill="none" xmlns="http://www.w3.org/2000/svg">
<circle cx="139.5" cy="139.5" r="118.978" fill="#E03131"/>
<path d="M141.389 20.5217L157.289 47.4384L181.436 27.5831L187.171 58.3146L216.652 47.9155L211.531 78.7551L242.791 79.0666L227.431 106.295L256.699 117.279L232.953 137.611L256.699 157.944L227.431 168.928L242.791 196.156L211.531 196.468L216.652 227.307L187.171 216.908L181.436 247.64L157.289 227.785L141.389 254.701L125.489 227.785L101.342 247.64L95.6065 216.908L66.1247 227.307L71.2463 196.468L39.9859 196.156L55.3464 168.928L26.0777 157.944L49.8244 137.611L26.0777 117.279L55.3464 106.295L39.9859 79.0666L71.2463 78.7551L66.1247 47.9155L95.6065 58.3146L101.342 27.5831L125.489 47.4384L141.389 20.5217Z" fill="white"/>
<circle cx="139.5" cy="139.5" r="137.5" stroke="black" stroke-width="4"/>
<rect x="156.497" y="201.822" width="30.2167" height="128.421" rx="4" transform="rotate(180 156.497 201.822)" fill="white"/>
<rect x="156.497" y="201.822" width="30.2167" height="128.421" rx="4" transform="rotate(180 156.497 201.822)" stroke="#212529" stroke-width="4"/>
<path d="M148.225 137.97C148.225 139.289 147.903 140.494 147.26 141.584C146.606 142.675 145.734 143.547 144.643 144.201C143.553 144.844 142.348 145.166 141.029 145.166C139.699 145.166 138.495 144.844 137.415 144.201C136.325 143.547 135.458 142.675 134.815 141.584C134.161 140.494 133.834 139.289 133.834 137.97C133.834 136.64 134.161 135.436 134.815 134.356C135.458 133.266 136.325 132.399 137.415 131.756C138.495 131.102 139.699 130.775 141.029 130.775C142.348 130.775 143.553 131.102 144.643 131.756C145.734 132.399 146.606 133.266 147.26 134.356C147.903 135.436 148.225 136.64 148.225 137.97Z" fill="#E03131"/>
</svg>
