<svg width="950" height="1312" viewBox="0 0 950 1312" fill="none" xmlns="http://www.w3.org/2000/svg">
<path fill-rule="evenodd" clip-rule="evenodd" d="M419.211 7.16559C363.152 -17.2886 357.046 26.4364 364.58 54.5433C380.204 109.549 399.976 138.143 423.713 172.473C428.782 179.803 434.031 187.395 439.46 195.561C444.968 203.55 451.083 218.885 450.155 226.194L449.227 300.661C399.477 311.768 352.052 319.521 318.39 317.197C231.426 312.877 295.785 369.362 315.328 367.933C353.148 364.213 399.537 358.386 448.596 351.22L447.957 402.456C331.032 426.604 231.674 444.128 222.527 435.334C173.756 399.402 121.965 421.265 152.795 469.696C171.979 504.974 195.097 539.158 218.347 573.538C255.158 627.973 292.302 682.898 314.692 743.433C315.387 744.858 316.082 746.164 316.777 747.359C302.703 769.598 287.643 788.987 270.181 806.834C248.023 783.724 232.752 795.728 245.225 829.937C200.61 867.464 140.732 900.161 49.6249 942.768C-21.9635 973.805 -16.8609 1020.93 69.9013 988.685C164.677 948.807 229.307 914.959 275.208 880.917C392.068 1044.05 402.402 1066.37 404.248 1242.46C409.203 1338.87 501.161 1323.9 509.746 1262.74C516.529 1219.97 512.408 1160.76 508.499 1104.61L508.499 1104.61C506.378 1074.14 504.319 1044.56 504.101 1019.01C503.294 924.152 502.732 833.041 504.01 743.489C506.042 743.142 508.076 742.795 510.112 742.447L510.113 742.446L510.114 742.446L510.115 742.446C518.131 741.075 526.18 739.699 534.302 738.348C550.164 764.199 566.637 793.462 583.196 822.877C639.612 923.089 697.024 1025.07 734.639 999.995C779.964 968.472 838.238 964.746 863.007 971.969C883.45 977.801 891.62 986.468 899.418 994.739C903.985 999.583 908.424 1004.29 915.126 1008.22C962.837 1029.98 952.857 1001.54 936.296 976.513C919.745 948.95 879.307 925.591 828.564 896.279C762.216 857.953 678.249 809.45 607.028 728.064C611.083 727.628 615.177 727.217 619.316 726.832C626.873 726.043 635.577 729.825 643.912 733.447C653.236 737.498 662.098 741.349 668.377 738.378C678.86 732.196 683.252 710.289 686.032 696.425L686.073 696.22C698.524 646.258 726.459 599.985 754.657 553.275L754.658 553.275C773.857 521.472 793.178 489.467 807.818 455.958C810.006 451.242 816.931 448.357 823.561 445.595C830.843 442.562 837.769 439.677 837.668 434.677C833.948 398.937 784.866 333.219 756.499 334.819C746.114 337.147 735.061 339.63 723.456 342.238L723.454 342.239L723.442 342.241L723.436 342.243C665.486 355.265 593.782 371.377 522.895 386.63C524.51 370.73 526.252 354.786 528.128 338.786C594.98 327.645 661.017 314.851 712.341 302.212C719.977 301.954 711.758 245.413 659.432 239.699C650.547 239.229 647.478 241.965 643.223 245.759C639.86 248.758 635.756 252.417 627.454 255.675C607.567 260.353 584.134 266.541 558.927 273.197L558.914 273.2C551.322 275.205 543.569 277.252 535.703 279.313C538.067 262.139 540.595 244.884 543.3 227.535C551.215 185.68 613.454 151.318 646.975 139.275C661.824 133.923 678.366 93.101 649.722 91.5212C581.885 83.7941 509.473 49.6589 444.604 19.0792C435.997 15.0221 427.524 11.0276 419.211 7.16559ZM306.734 854.85C338.199 825.578 358.294 795.031 373.97 759.422C398.325 758.399 421.251 756.054 443.585 753.026L441.601 912.144C441.676 933.617 437.866 1001.54 425.315 990.83C381.549 954.808 364.723 932.729 306.734 854.85ZM292.506 504.293C336.836 492.642 391.887 482.002 447.076 473.083L446.097 551.61C408.833 556.406 370.601 560.472 327.083 565.1L327.077 565.101L320.012 565.853C306.791 566.214 274.04 508.947 292.506 504.293ZM339.762 631.746C352.571 627.118 395.74 619.208 445.337 612.592L444.436 684.808C400.674 690.238 367.046 692.32 361.799 686.391C353.655 676.993 337.135 650.113 339.762 631.746ZM507.692 605.445C506.732 629.01 505.96 652.605 505.347 676.271C533.615 671.981 562.63 667.247 588.911 662.959L588.949 662.953C596.933 661.651 604.664 660.389 612.046 659.194C627.197 656.67 648.124 633.765 635.876 611.072C629.094 598.412 570.986 599.478 507.692 605.445ZM516.064 462.787C513.989 489.334 512.23 515.815 510.743 542.287C538.697 537.77 567.5 532.435 598.927 525.752C606.771 523.218 610.054 519.355 613.068 515.808C616.38 511.91 619.368 508.393 627.731 507.444C638.509 507.684 644.533 514.715 650.115 521.229C655.541 527.562 660.548 533.407 669.099 532.047C684.672 528.527 723.916 444.764 685.888 445.772C656.948 446.209 590.719 452.526 516.064 462.787Z" fill="#F3F3FF" fill-opacity="0.5"/>
</svg>
