<svg width="778" height="1312" viewBox="0 0 778 1312" fill="none" xmlns="http://www.w3.org/2000/svg">
<path fill-rule="evenodd" clip-rule="evenodd" d="M256.014 98.5941C255.922 96.8552 255.836 95.2429 255.708 93.8192C258.015 68.2052 293.536 43.5868 321.699 24.068C334.666 15.0815 346.072 7.17589 351.96 0.751761C363.374 -10.762 499.546 113.598 491.681 126.207C498.542 138.979 469.689 194.047 447.711 211.693C431.127 220.882 420.006 264.594 412.602 331.511C487.079 312.692 556.574 294.971 654.388 268.66C666.77 264.751 740.23 351.515 775.786 395.591C780.922 401.956 773.908 407.226 772.408 408.353C772.197 408.512 772.095 408.588 772.152 408.574C770.793 408.898 768.46 409.221 765.536 409.626C753.355 411.314 730.915 414.422 725.933 424.959C719.317 438.951 709.802 457.409 699.083 478.201C661.238 551.612 608.394 654.119 615.225 691.9C616.25 697.57 613.538 711.362 598.14 709.782C535.504 704.275 465.273 702.889 398.646 703.547C398.237 788.475 398.648 878.165 399.058 967.268C399.173 992.454 399.289 1017.59 399.385 1042.56C406.839 1212.67 400.809 1223.88 383.73 1255.6C377.817 1266.59 370.581 1280.03 362.122 1303.38C358.376 1313.72 350.288 1316.44 342.848 1299.73C332.487 1283.27 301.159 1212.57 315.419 1079.31C318.97 907.858 319.094 809.506 318.188 705.282C227.733 708.216 155.042 713.692 135.417 715.17C134.194 715.263 133.176 715.339 132.374 715.399C113.618 716.249 115.881 708.166 118.983 697.086C120.169 692.849 121.478 688.175 121.781 683.394C111.351 602.397 86.7585 531.505 14.8965 465.327C2.25834 452.601 1.27787 430.135 0.101159 403.173C0.0788554 402.662 0.0564815 402.15 0.0339564 401.635C-0.846695 381.53 15.556 359.637 31.3394 379.271C48.3799 407.732 85.2304 410.489 103.226 410.809C189.973 388.067 256.944 370.911 315.007 356.18C314.794 310.785 314.653 260.402 314.625 203.712C321.718 160.307 285.887 132.78 271.652 131.295C257.475 126.081 256.606 109.738 256.014 98.5941ZM315.479 435.372C286.257 442.853 258.383 450.222 233.737 456.738C199.19 465.872 170.988 473.329 154.315 477.06C142.571 479.917 139.576 486.477 146.838 495.492C178.155 534.366 193.135 583.621 201.808 612.14C205.924 625.672 208.62 634.536 210.967 635.406C219.843 638.343 241.875 637.119 281.047 634.941C291.848 634.34 303.953 633.667 317.445 632.989C317.362 625.62 317.277 618.146 317.191 610.544C316.616 560.053 315.976 503.927 315.479 435.372ZM399.244 629.802C434.632 628.846 475.63 628.293 522.826 628.616C530.159 629.858 546.906 585.563 566.674 533.278C582.415 491.641 600.073 444.938 616.417 412.131C628.325 392.498 613.951 384.662 583.81 384.434C543.686 384.131 476.306 396.913 405.914 413.203C402.155 475.974 400.189 549.848 399.244 629.802Z" fill="#FCF0F0" fill-opacity="0.5"/>
</svg>
