<svg width="16" height="19" viewBox="0 0 16 19" stroke="none" xmlns="http://www.w3.org/2000/svg">
<path d="M13.3607 8.11094L8.975 12.588C8.71786 12.8505 8.36428 13 8 13C7.63571 13 7.28214 12.8505 7.025 12.588L2.63928 8.11094C2.41071 7.8776 2.28571 7.56406 2.28571 7.23594C2.28571 6.55416 2.82857 6 3.49643 6L5.71428 6L5.71428 1.33333C5.71428 0.688018 6.225 0.166664 6.85714 0.166664L9.14286 0.166664C9.775 0.166664 10.2857 0.688018 10.2857 1.33333L10.2857 6L12.5036 6C13.1714 6 13.7143 6.55416 13.7143 7.23594C13.7143 7.56406 13.5857 7.8776 13.3607 8.11094ZM2.28571 13L2.28571 15.3333C2.28571 15.9786 2.79643 16.5 3.42857 16.5L12.5714 16.5C13.2036 16.5 13.7143 15.9786 13.7143 15.3333L13.7143 13C13.7143 12.3547 14.225 11.8333 14.8571 11.8333C15.4893 11.8333 16 12.3547 16 13L16 15.3333C16 17.2656 14.4643 18.8333 12.5714 18.8333L3.42857 18.8333C1.53571 18.8333 -7.47419e-07 17.2656 -6.62956e-07 15.3333L-5.60963e-07 13C-5.32755e-07 12.3547 0.510713 11.8333 1.14286 11.8333C1.775 11.8333 2.28571 12.3547 2.28571 13Z"/>
</svg>
