<svg width="110" height="64" viewBox="0 0 110 64" fill="none" xmlns="http://www.w3.org/2000/svg">
<g clip-path="url(#clip0_330_3587)">
<path d="M104.678 6.95745L74.4772 4.3152C71.4453 4.04994 68.7725 6.29271 68.5073 9.32455L64.6557 53.3484C64.3904 56.3803 66.6332 59.0531 69.665 59.3184L99.8661 61.9606C102.898 62.2259 105.571 59.9831 105.836 56.9513L109.688 12.9274C109.953 9.89553 107.71 7.2227 104.678 6.95745Z" fill="#F5F0EB"/>
<g clip-path="url(#clip1_330_3587)">
<path d="M87.0811 15.9825C88.5165 16.1081 89.7589 15.3095 89.8561 14.1988C89.9533 13.0881 88.8684 12.0859 87.433 11.9603C85.9976 11.8347 84.7552 12.6333 84.658 13.744C84.5609 14.8547 85.6457 15.857 87.0811 15.9825Z" fill="#004900"/>
<path d="M90.1314 16.2494C91.5668 16.375 92.8092 15.5764 92.9064 14.4657C93.0036 13.3549 91.9187 12.3527 90.4833 12.2272C89.0479 12.1016 87.8055 12.9002 87.7083 14.0109C87.6112 15.1216 88.696 16.1238 90.1314 16.2494Z" fill="#004900"/>
<path d="M85.5767 31.7015C87.0121 31.8271 88.2545 31.0285 88.3517 29.9178C88.4489 28.8071 87.364 27.8049 85.9286 27.6793C84.4932 27.5537 83.2508 28.3523 83.1536 29.463C83.0565 30.5737 84.1413 31.576 85.5767 31.7015Z" fill="#004900"/>
<path fill-rule="evenodd" clip-rule="evenodd" d="M89.0063 11.6007C90.6057 11.7406 91.7889 13.1506 91.649 14.75L90.4082 28.9323C90.2682 30.5317 88.8582 31.7148 87.2588 31.5749C85.6594 31.435 84.4763 30.0249 84.6162 28.4255L85.857 14.2433C85.9969 12.6439 87.4069 11.4607 89.0063 11.6007Z" fill="#004900"/>
<path d="M88.9261 31.9946C90.3615 32.1201 91.6039 31.3215 91.7011 30.2108C91.7982 29.1001 90.7134 28.0979 89.278 27.9723C87.8426 27.8467 86.6002 28.6453 86.503 29.7561C86.4058 30.8668 87.4907 31.869 88.9261 31.9946Z" fill="#004900"/>
<path d="M89.1249 24.0857C91.0317 24.2525 92.6822 23.1916 92.8113 21.716C92.9404 20.2405 91.4992 18.9091 89.5923 18.7423C87.6855 18.5754 86.035 19.6364 85.9059 21.1119C85.7768 22.5874 87.218 23.9188 89.1249 24.0857Z" fill="#004900"/>
<path d="M86.7372 23.8768C88.644 24.0436 90.2945 22.9827 90.4236 21.5072C90.5527 20.0316 89.1115 18.7002 87.2047 18.5334C85.2978 18.3666 83.6473 19.4275 83.5182 20.903C83.3891 22.3786 84.8303 23.71 86.7372 23.8768Z" fill="#004900"/>
<path fill-rule="evenodd" clip-rule="evenodd" d="M88.796 14.0044C89.1598 14.0362 89.4289 14.3569 89.3971 14.7208L89.0484 18.7059C89.0166 19.0697 88.6959 19.3388 88.332 19.307C87.9682 19.2752 87.6991 18.9544 87.7309 18.5906L88.0796 14.6055C88.1114 14.2417 88.4321 13.9725 88.796 14.0044Z" fill="white"/>
<path fill-rule="evenodd" clip-rule="evenodd" d="M87.9498 23.6757C88.3136 23.7076 88.5827 24.0283 88.5509 24.3921L88.1203 29.3136C88.0885 29.6774 87.7678 29.9466 87.4039 29.9147C87.0401 29.8829 86.771 29.5622 86.8028 29.1983L87.2334 24.2769C87.2652 23.913 87.586 23.6439 87.9498 23.6757Z" fill="white"/>
<path d="M88.6785 15.3483C89.2015 15.3941 89.6613 15.0211 89.7056 14.5153C89.7498 14.0094 89.3618 13.5623 88.8388 13.5165C88.3158 13.4707 87.856 13.8437 87.8117 14.3496C87.7675 14.8554 88.1555 15.3026 88.6785 15.3483Z" fill="white"/>
<path fill-rule="evenodd" clip-rule="evenodd" d="M88.0755 22.7314C87.8076 22.7055 87.5907 22.7972 87.4845 22.9317C87.2959 23.1706 86.9494 23.2114 86.7105 23.0228C86.4716 22.8343 86.4308 22.4877 86.6194 22.2489C87.0178 21.7441 87.6485 21.5829 88.1816 21.6344C88.7085 21.6854 89.298 21.9618 89.5647 22.5335C89.6933 22.8093 89.574 23.1372 89.2981 23.2658C89.0223 23.3945 88.6944 23.2751 88.5658 22.9993C88.5145 22.8892 88.3496 22.7579 88.0755 22.7314Z" fill="white"/>
<path fill-rule="evenodd" clip-rule="evenodd" d="M88.244 20.8057C87.9761 20.7798 87.7591 20.8714 87.6529 21.006C87.4644 21.2449 87.1179 21.2857 86.879 21.0971C86.6401 20.9085 86.5993 20.562 86.7878 20.3231C87.1863 19.8184 87.817 19.6572 88.3501 19.7087C88.877 19.7596 89.4665 20.036 89.7331 20.6078C89.8618 20.8836 89.7424 21.2115 89.4666 21.3401C89.1908 21.4687 88.8629 21.3494 88.7343 21.0736C88.6829 20.9635 88.5181 20.8322 88.244 20.8057Z" fill="white"/>
<path d="M85.0789 38.8669C86.5143 38.9925 87.7567 38.1939 87.8539 37.0832C87.9511 35.9725 86.8662 34.9703 85.4308 34.8447C83.9954 34.7191 82.753 35.5177 82.6558 36.6284C82.5587 37.7391 83.6435 38.7413 85.0789 38.8669Z" fill="#004900"/>
<path d="M88.1292 39.1338C89.5646 39.2594 90.807 38.4608 90.9042 37.3501C91.0014 36.2393 89.9165 35.2371 88.4811 35.1115C87.0457 34.986 85.8033 35.7846 85.7061 36.8953C85.609 38.006 86.6938 39.0082 88.1292 39.1338Z" fill="#004900"/>
<path d="M83.5745 54.5859C85.0099 54.7115 86.2523 53.9129 86.3495 52.8022C86.4467 51.6915 85.3618 50.6893 83.9264 50.5637C82.491 50.4381 81.2486 51.2367 81.1514 52.3474C81.0543 53.4581 82.1391 54.4604 83.5745 54.5859Z" fill="#004900"/>
<path fill-rule="evenodd" clip-rule="evenodd" d="M87.0041 34.485C88.6035 34.625 89.7867 36.035 89.6468 37.6344L88.406 51.8167C88.266 53.4161 86.856 54.5992 85.2566 54.4593C83.6572 54.3193 82.4741 52.9093 82.614 51.3099L83.8548 37.1277C83.9947 35.5282 85.4047 34.3451 87.0041 34.485Z" fill="#004900"/>
<path d="M86.9239 54.879C88.3593 55.0045 89.6017 54.2059 89.6989 53.0952C89.796 51.9845 88.7112 50.9823 87.2758 50.8567C85.8404 50.7311 84.598 51.5297 84.5008 52.6405C84.4036 53.7512 85.4885 54.7534 86.9239 54.879Z" fill="#004900"/>
<path d="M87.1227 46.97C89.0295 47.1369 90.68 46.076 90.8091 44.6004C90.9382 43.1249 89.497 41.7935 87.5901 41.6267C85.6833 41.4598 84.0328 42.5207 83.9037 43.9963C83.7746 45.4718 85.2158 46.8032 87.1227 46.97Z" fill="#004900"/>
<path d="M84.735 46.7612C86.6418 46.928 88.2923 45.8671 88.4214 44.3915C88.5505 42.916 87.1093 41.5846 85.2025 41.4178C83.2956 41.2509 81.6451 42.3119 81.516 43.7874C81.3869 45.2629 82.8281 46.5943 84.735 46.7612Z" fill="#004900"/>
<path fill-rule="evenodd" clip-rule="evenodd" d="M86.7938 36.8887C87.1576 36.9206 87.4267 37.2413 87.3949 37.6051L87.0462 41.5903C87.0144 41.9541 86.6937 42.2232 86.3298 42.1914C85.966 42.1595 85.6969 41.8388 85.7287 41.475L86.0774 37.4899C86.1092 37.126 86.4299 36.8569 86.7938 36.8887Z" fill="white"/>
<path fill-rule="evenodd" clip-rule="evenodd" d="M85.9476 46.5601C86.3114 46.592 86.5805 46.9127 86.5487 47.2765L86.1181 52.198C86.0863 52.5618 85.7656 52.8309 85.4017 52.7991C85.0379 52.7673 84.7688 52.4465 84.8006 52.0827L85.2312 47.1612C85.263 46.7974 85.5838 46.5283 85.9476 46.5601Z" fill="white"/>
<path d="M86.6763 38.2327C87.1993 38.2785 87.6591 37.9055 87.7034 37.3997C87.7476 36.8938 87.3596 36.4466 86.8366 36.4009C86.3136 36.3551 85.8538 36.7281 85.8095 37.234C85.7653 37.7398 86.1533 38.187 86.6763 38.2327Z" fill="white"/>
<path fill-rule="evenodd" clip-rule="evenodd" d="M86.0733 45.6158C85.8054 45.5899 85.5885 45.6815 85.4823 45.8161C85.2937 46.055 84.9472 46.0958 84.7083 45.9072C84.4694 45.7186 84.4286 45.3721 84.6172 45.1332C85.0156 44.6285 85.6463 44.4673 86.1794 44.5188C86.7063 44.5697 87.2958 44.8462 87.5625 45.4179C87.6911 45.6937 87.5718 46.0216 87.2959 46.1502C87.0201 46.2788 86.6922 46.1595 86.5636 45.8837C86.5123 45.7736 86.3474 45.6423 86.0733 45.6158Z" fill="white"/>
<path fill-rule="evenodd" clip-rule="evenodd" d="M86.2418 43.6901C85.9739 43.6642 85.7569 43.7558 85.6507 43.8904C85.4622 44.1292 85.1157 44.1701 84.8768 43.9815C84.6379 43.7929 84.5971 43.4464 84.7856 43.2075C85.1841 42.7027 85.8148 42.5415 86.3479 42.5931C86.8748 42.644 87.4643 42.9204 87.7309 43.4922C87.8596 43.768 87.7402 44.0959 87.4644 44.2245C87.1886 44.3531 86.8607 44.2338 86.7321 43.958C86.6807 43.8479 86.5159 43.7166 86.2418 43.6901Z" fill="white"/>
</g>
</g>
<rect x="70.5077" y="4.97173" width="37.8763" height="53.2133" rx="4" transform="rotate(5 70.5077 4.97173)" stroke="black" stroke-width="2"/>
<g clip-path="url(#clip2_330_3587)">
<path d="M70.1525 0H39.836C36.7926 0 34.3254 2.46718 34.3254 5.51061V49.7027C34.3254 52.7461 36.7926 55.2133 39.836 55.2133H70.1525C73.1959 55.2133 75.6631 52.7461 75.6631 49.7027V5.51061C75.6631 2.46718 73.1959 0 70.1525 0Z" fill="#F5F0EB"/>
<path d="M54.9908 25.4507C60.0051 25.4507 64.0701 21.3858 64.0701 16.3715C64.0701 11.3572 60.0051 7.2923 54.9908 7.2923C49.9765 7.2923 45.9116 11.3572 45.9116 16.3715C45.9116 21.3858 49.9765 25.4507 54.9908 25.4507Z" fill="white"/>
<path fill-rule="evenodd" clip-rule="evenodd" d="M54.9909 8.0189C50.3779 8.0189 46.6383 11.7585 46.6383 16.3715C46.6383 20.9845 50.3779 24.7241 54.9909 24.7241C59.6039 24.7241 63.3435 20.9845 63.3435 16.3715C63.3435 11.7585 59.6039 8.0189 54.9909 8.0189ZM45.1851 16.3715C45.1851 10.9559 49.5753 6.56569 54.9909 6.56569C60.4065 6.56569 64.7967 10.9559 64.7967 16.3715C64.7967 21.7871 60.4065 26.1773 54.9909 26.1773C49.5753 26.1773 45.1851 21.7871 45.1851 16.3715Z" fill="black"/>
<path d="M54.9908 23.8147C59.0842 23.8147 62.4027 20.4963 62.4027 16.4028C62.4027 12.3093 59.0842 8.99092 54.9908 8.99092C50.8973 8.99092 47.5789 12.3093 47.5789 16.4028C47.5789 20.4963 50.8973 23.8147 54.9908 23.8147Z" fill="#000037"/>
<path fill-rule="evenodd" clip-rule="evenodd" d="M51.0489 15.9353C50.8632 15.8076 50.6101 15.7346 50.342 15.7474C50.0738 15.7602 49.8378 15.8565 49.6779 15.9954C49.5207 16.132 49.4559 16.2904 49.4559 16.4309C49.4559 16.5713 49.5207 16.7297 49.6779 16.8663C49.8378 17.0052 50.0738 17.1015 50.342 17.1143C50.6101 17.1271 50.8632 17.0541 51.0489 16.9264C51.2779 16.7689 51.5913 16.8269 51.7487 17.0559C51.9062 17.2849 51.8483 17.5982 51.6193 17.7557C51.2383 18.0177 50.7644 18.1421 50.294 18.1196C49.8238 18.0972 49.3656 17.9282 49.0179 17.6261C48.6675 17.3217 48.4495 16.8967 48.4495 16.4309C48.4495 15.965 48.6675 15.54 49.0179 15.2356C49.3656 14.9335 49.8238 14.7645 50.294 14.7421C50.7644 14.7196 51.2383 14.844 51.6193 15.1061C51.8483 15.2635 51.9062 15.5769 51.7487 15.8059C51.5913 16.0349 51.2779 16.0928 51.0489 15.9353Z" fill="white"/>
<path fill-rule="evenodd" clip-rule="evenodd" d="M52.5798 19.596C52.3763 19.6929 52.1865 19.8756 52.0635 20.1142C51.9405 20.3529 51.9059 20.6054 51.9463 20.8133C51.986 21.0178 52.0907 21.1531 52.2124 21.2233C52.334 21.2935 52.5035 21.3167 52.7005 21.2488C52.9007 21.1798 53.1021 21.0236 53.2473 20.7977C53.3925 20.5719 53.4558 20.3162 53.438 20.0915C53.4161 19.8144 53.623 19.5721 53.9001 19.5502C54.1771 19.5283 54.4195 19.7351 54.4414 20.0122C54.4778 20.4731 54.3486 20.9458 54.094 21.3419C53.8394 21.7379 53.464 22.0502 53.0285 22.2003C52.5897 22.3515 52.1126 22.3278 51.7092 22.0949C51.3057 21.862 51.0467 21.4607 50.9582 21.0051C50.8705 20.5528 50.9532 20.0715 51.1689 19.6531C51.3846 19.2345 51.7293 18.8863 52.1467 18.6874C52.3976 18.5678 52.698 18.6743 52.8175 18.9252C52.9371 19.1761 52.8306 19.4764 52.5798 19.596Z" fill="white"/>
<path fill-rule="evenodd" clip-rule="evenodd" d="M56.4241 20.053C56.4064 20.2777 56.4697 20.5334 56.6148 20.7592C56.76 20.9851 56.9614 21.1413 57.1617 21.2103C57.3586 21.2782 57.5281 21.2551 57.6498 21.1848C57.7714 21.1146 57.8762 20.9793 57.9159 20.7748C57.9562 20.5669 57.9217 20.3144 57.7986 20.0757C57.6756 19.8371 57.4858 19.6544 57.2824 19.5575C57.0315 19.4379 56.925 19.1376 57.0446 18.8867C57.1642 18.6358 57.4645 18.5293 57.7154 18.6489C58.1328 18.8478 58.4775 19.196 58.6932 19.6146C58.9089 20.0331 58.9917 20.5144 58.9039 20.9666C58.8155 21.4222 58.5564 21.8235 58.153 22.0564C57.7496 22.2894 57.2725 22.3131 56.8337 22.1618C56.3982 22.0117 56.0227 21.6994 55.7682 21.3034C55.5135 20.9073 55.3844 20.4347 55.4208 19.9737C55.4427 19.6966 55.685 19.4898 55.9621 19.5117C56.2392 19.5336 56.446 19.7759 56.4241 20.053Z" fill="white"/>
<path fill-rule="evenodd" clip-rule="evenodd" d="M58.7421 16.9522C58.9278 17.08 59.1809 17.153 59.449 17.1402C59.7173 17.1274 59.9532 17.0311 60.1131 16.8922C60.2703 16.7555 60.3351 16.5972 60.3351 16.4567C60.3351 16.3162 60.2703 16.1579 60.1131 16.0213C59.9532 15.8824 59.7173 15.7861 59.449 15.7733C59.1809 15.7605 58.9278 15.8335 58.7421 15.9612C58.5131 16.1187 58.1998 16.0607 58.0423 15.8317C57.8848 15.6027 57.9427 15.2894 58.1717 15.1319C58.5527 14.8699 59.0266 14.7455 59.497 14.7679C59.9672 14.7904 60.4254 14.9594 60.7731 15.2615C61.1235 15.5659 61.3416 15.9909 61.3416 16.4567C61.3416 16.9225 61.1235 17.3476 60.7731 17.652C60.4254 17.9541 59.9672 18.1231 59.497 18.1455C59.0266 18.168 58.5527 18.0435 58.1717 17.7815C57.9427 17.624 57.8848 17.3107 58.0423 17.0817C58.1998 16.8527 58.5131 16.7948 58.7421 16.9522Z" fill="white"/>
<path fill-rule="evenodd" clip-rule="evenodd" d="M57.2157 13.3944C57.4191 13.2975 57.6089 13.1148 57.7319 12.8762C57.8549 12.6375 57.8895 12.385 57.8491 12.1771C57.8094 11.9726 57.7047 11.8373 57.583 11.7671C57.4614 11.6968 57.2919 11.6737 57.0949 11.7416C56.8947 11.8106 56.6933 11.9668 56.5481 12.1927C56.4029 12.4185 56.3396 12.6742 56.3574 12.8989C56.3793 13.176 56.1724 13.4183 55.8954 13.4402C55.6183 13.4621 55.3759 13.2553 55.354 12.9782C55.3176 12.5172 55.4468 12.0446 55.7014 11.6485C55.956 11.2525 56.3314 10.9402 56.7669 10.7901C57.2057 10.6388 57.6828 10.6625 58.0863 10.8955C58.4897 11.1284 58.7488 11.5297 58.8372 11.9853C58.9249 12.4375 58.8422 12.9188 58.6265 13.3373C58.4108 13.7559 58.0661 14.1041 57.6487 14.303C57.3978 14.4226 57.0975 14.3161 56.9779 14.0652C56.8583 13.8143 56.9648 13.514 57.2157 13.3944Z" fill="white"/>
<path fill-rule="evenodd" clip-rule="evenodd" d="M53.3713 12.9374C53.389 12.7127 53.3257 12.457 53.1806 12.2312C53.0354 12.0053 52.834 11.8491 52.6338 11.7801C52.4368 11.7122 52.2673 11.7353 52.1456 11.8056C52.024 11.8758 51.9192 12.011 51.8795 12.2156C51.8392 12.4235 51.8738 12.6759 51.9968 12.9147C52.1198 13.1533 52.3096 13.336 52.513 13.4329C52.7639 13.5525 52.8704 13.8528 52.7508 14.1037C52.6312 14.3546 52.3309 14.4611 52.08 14.3415C51.6626 14.1426 51.3179 13.7944 51.1022 13.3758C50.8865 12.9573 50.8037 12.476 50.8915 12.0238C50.9799 11.5682 51.239 11.1669 51.6424 10.9339C52.0458 10.701 52.5229 10.6773 52.9617 10.8286C53.3972 10.9787 53.7727 11.291 54.0272 11.687C54.2819 12.0831 54.4111 12.5557 54.3746 13.0167C54.3527 13.2937 54.1104 13.5006 53.8333 13.4787C53.5563 13.4568 53.3494 13.2145 53.3713 12.9374Z" fill="white"/>
<path fill-rule="evenodd" clip-rule="evenodd" d="M54.9785 15.3768C54.417 15.3768 53.9618 15.832 53.9618 16.3935C53.9618 16.955 54.417 17.4102 54.9785 17.4102C55.54 17.4102 55.9952 16.955 55.9952 16.3935C55.9952 15.832 55.54 15.3768 54.9785 15.3768ZM52.9248 16.3935C52.9248 15.2592 53.8443 14.3398 54.9785 14.3398C56.1127 14.3398 57.0322 15.2592 57.0322 16.3935C57.0322 17.5277 56.1127 18.4472 54.9785 18.4472C53.8443 18.4472 52.9248 17.5277 52.9248 16.3935Z" fill="white"/>
<path d="M54.9908 47.7687C60.0051 47.7687 64.0701 43.7038 64.0701 38.6895C64.0701 33.6752 60.0051 29.6103 54.9908 29.6103C49.9765 29.6103 45.9116 33.6752 45.9116 38.6895C45.9116 43.7038 49.9765 47.7687 54.9908 47.7687Z" fill="white"/>
<path fill-rule="evenodd" clip-rule="evenodd" d="M54.9909 30.3369C50.3779 30.3369 46.6383 34.0765 46.6383 38.6895C46.6383 43.3025 50.3779 47.0421 54.9909 47.0421C59.6039 47.0421 63.3435 43.3025 63.3435 38.6895C63.3435 34.0765 59.6039 30.3369 54.9909 30.3369ZM45.1851 38.6895C45.1851 33.2739 49.5753 28.8837 54.9909 28.8837C60.4065 28.8837 64.7967 33.2739 64.7967 38.6895C64.7967 44.1051 60.4065 48.4953 54.9909 48.4953C49.5753 48.4953 45.1851 44.1051 45.1851 38.6895Z" fill="black"/>
<path d="M54.9908 46.1327C59.0842 46.1327 62.4027 42.8143 62.4027 38.7208C62.4027 34.6273 59.0842 31.3089 54.9908 31.3089C50.8973 31.3089 47.5789 34.6273 47.5789 38.7208C47.5789 42.8143 50.8973 46.1327 54.9908 46.1327Z" fill="#000037"/>
<path fill-rule="evenodd" clip-rule="evenodd" d="M51.0489 38.2533C50.8632 38.1256 50.6101 38.0526 50.342 38.0654C50.0738 38.0782 49.8378 38.1745 49.6779 38.3134C49.5207 38.45 49.4559 38.6083 49.4559 38.7488C49.4559 38.8893 49.5207 39.0476 49.6779 39.1843C49.8378 39.3232 50.0738 39.4195 50.342 39.4323C50.6101 39.4451 50.8632 39.3721 51.0489 39.2443C51.2779 39.0869 51.5913 39.1448 51.7487 39.3738C51.9062 39.6028 51.8483 39.9161 51.6193 40.0736C51.2383 40.3356 50.7644 40.4601 50.294 40.4376C49.8238 40.4152 49.3656 40.2462 49.0179 39.9441C48.6675 39.6397 48.4495 39.2147 48.4495 38.7488C48.4495 38.283 48.6675 37.858 49.0179 37.5536C49.3656 37.2515 49.8238 37.0825 50.294 37.06C50.7644 37.0376 51.2383 37.162 51.6193 37.424C51.8483 37.5815 51.9062 37.8948 51.7487 38.1238C51.5913 38.3528 51.2779 38.4108 51.0489 38.2533Z" fill="white"/>
<path fill-rule="evenodd" clip-rule="evenodd" d="M52.5798 41.9139C52.3763 42.0109 52.1865 42.1936 52.0635 42.4322C51.9405 42.6709 51.9059 42.9234 51.9463 43.1313C51.986 43.3358 52.0907 43.471 52.2124 43.5413C52.334 43.6115 52.5035 43.6346 52.7005 43.5667C52.9007 43.4977 53.1021 43.3415 53.2473 43.1156C53.3925 42.8898 53.4558 42.6341 53.438 42.4094C53.4161 42.1324 53.623 41.89 53.9001 41.8681C54.1771 41.8462 54.4195 42.0531 54.4414 42.3302C54.4778 42.7911 54.3486 43.2637 54.094 43.6599C53.8394 44.0559 53.464 44.3682 53.0285 44.5183C52.5897 44.6695 52.1126 44.6458 51.7092 44.4129C51.3057 44.18 51.0467 43.7787 50.9582 43.323C50.8705 42.8708 50.9532 42.3895 51.1689 41.9711C51.3846 41.5525 51.7293 41.2043 52.1467 41.0054C52.3976 40.8858 52.698 40.9922 52.8175 41.2431C52.9371 41.494 52.8306 41.7943 52.5798 41.9139Z" fill="white"/>
<path fill-rule="evenodd" clip-rule="evenodd" d="M56.4241 42.371C56.4064 42.5956 56.4697 42.8513 56.6148 43.0771C56.76 43.3031 56.9614 43.4592 57.1617 43.5282C57.3586 43.5961 57.5281 43.573 57.6498 43.5028C57.7714 43.4325 57.8762 43.2973 57.9159 43.0928C57.9562 42.8849 57.9217 42.6324 57.7986 42.3937C57.6756 42.1551 57.4858 41.9724 57.2824 41.8754C57.0315 41.7559 56.925 41.4555 57.0446 41.2046C57.1642 40.9538 57.4645 40.8473 57.7154 40.9669C58.1328 41.1658 58.4775 41.514 58.6932 41.9326C58.9089 42.351 58.9917 42.8323 58.9039 43.2845C58.8155 43.7402 58.5564 44.1415 58.153 44.3744C57.7496 44.6073 57.2725 44.631 56.8337 44.4798C56.3982 44.3297 56.0227 44.0174 55.7682 43.6214C55.5135 43.2252 55.3844 42.7526 55.4208 42.2917C55.4427 42.0146 55.685 41.8078 55.9621 41.8296C56.2392 41.8515 56.446 42.0939 56.4241 42.371Z" fill="white"/>
<path fill-rule="evenodd" clip-rule="evenodd" d="M58.7421 39.2702C58.9278 39.3979 59.1809 39.4709 59.449 39.4581C59.7173 39.4453 59.9532 39.349 60.1131 39.2101C60.2703 39.0735 60.3351 38.9152 60.3351 38.7747C60.3351 38.6342 60.2703 38.4759 60.1131 38.3392C59.9532 38.2003 59.7173 38.104 59.449 38.0912C59.1809 38.0784 58.9278 38.1514 58.7421 38.2792C58.5131 38.4367 58.1998 38.3787 58.0423 38.1497C57.8848 37.9207 57.9427 37.6074 58.1717 37.4499C58.5527 37.1879 59.0266 37.0634 59.497 37.0859C59.9672 37.1083 60.4254 37.2773 60.7731 37.5794C61.1235 37.8838 61.3416 38.3089 61.3416 38.7747C61.3416 39.2405 61.1235 39.6655 60.7731 39.9699C60.4254 40.272 59.9672 40.441 59.497 40.4635C59.0266 40.4859 58.5527 40.3615 58.1717 40.0995C57.9427 39.942 57.8848 39.6287 58.0423 39.3997C58.1998 39.1707 58.5131 39.1127 58.7421 39.2702Z" fill="white"/>
<path fill-rule="evenodd" clip-rule="evenodd" d="M57.2157 35.7124C57.4191 35.6154 57.6089 35.4327 57.7319 35.1942C57.8549 34.9554 57.8895 34.703 57.8491 34.495C57.8094 34.2905 57.7047 34.1553 57.583 34.0851C57.4614 34.0148 57.2919 33.9917 57.0949 34.0596C56.8947 34.1286 56.6933 34.2848 56.5481 34.5107C56.4029 34.7365 56.3396 34.9922 56.3574 35.2169C56.3793 35.4939 56.1724 35.7363 55.8954 35.7582C55.6183 35.7801 55.3759 35.5732 55.354 35.2962C55.3176 34.8352 55.4468 34.3626 55.7014 33.9665C55.956 33.5705 56.3314 33.2582 56.7669 33.1081C57.2057 32.9568 57.6828 32.9805 58.0863 33.2134C58.4897 33.4463 58.7488 33.8477 58.8372 34.3033C58.9249 34.7555 58.8422 35.2368 58.6265 35.6553C58.4108 36.0738 58.0661 36.422 57.6487 36.621C57.3978 36.7405 57.0975 36.6341 56.9779 36.3832C56.8583 36.1323 56.9648 35.832 57.2157 35.7124Z" fill="white"/>
<path fill-rule="evenodd" clip-rule="evenodd" d="M53.3713 35.2554C53.389 35.0307 53.3257 34.775 53.1806 34.5492C53.0354 34.3233 52.834 34.1671 52.6338 34.0981C52.4368 34.0302 52.2673 34.0533 52.1456 34.1235C52.024 34.1938 51.9192 34.329 51.8795 34.5335C51.8392 34.7414 51.8738 34.9939 51.9968 35.2326C52.1198 35.4712 52.3096 35.6539 52.513 35.7509C52.7639 35.8705 52.8704 36.1708 52.7508 36.4217C52.6312 36.6726 52.3309 36.779 52.08 36.6594C51.6626 36.4605 51.3179 36.1123 51.1022 35.6937C50.8865 35.2753 50.8037 34.794 50.8915 34.3418C50.9799 33.8862 51.239 33.4848 51.6424 33.2519C52.0458 33.019 52.5229 32.9953 52.9617 33.1465C53.3972 33.2966 53.7727 33.609 54.0272 34.005C54.2819 34.4011 54.4111 34.8737 54.3746 35.3346C54.3527 35.6117 54.1104 35.8186 53.8333 35.7967C53.5563 35.7748 53.3494 35.5324 53.3713 35.2554Z" fill="white"/>
<path fill-rule="evenodd" clip-rule="evenodd" d="M54.9785 37.6947C54.417 37.6947 53.9618 38.1499 53.9618 38.7114C53.9618 39.2729 54.417 39.7281 54.9785 39.7281C55.54 39.7281 55.9952 39.2729 55.9952 38.7114C55.9952 38.1499 55.54 37.6947 54.9785 37.6947ZM52.9248 38.7114C52.9248 37.5772 53.8443 36.6577 54.9785 36.6577C56.1127 36.6577 57.0322 37.5772 57.0322 38.7114C57.0322 39.8457 56.1127 40.7651 54.9785 40.7651C53.8443 40.7651 52.9248 39.8457 52.9248 38.7114Z" fill="white"/>
</g>
<rect x="35.939" y="1" width="37.8763" height="53.2133" rx="4" stroke="black" stroke-width="2"/>
<g clip-path="url(#clip3_330_3587)">
<path d="M35.0797 5.92776L4.87855 8.57001C1.84671 8.83526 -0.396055 11.5081 -0.130803 14.5399L3.72079 58.5638C3.98604 61.5957 6.65887 63.8384 9.69071 63.5732L39.8918 60.9309C42.9237 60.6657 45.1664 57.9928 44.9012 54.961L41.0496 10.9371C40.7843 7.90527 38.1115 5.66251 35.0797 5.92776Z" fill="#F5F0EB"/>
<path fill-rule="evenodd" clip-rule="evenodd" d="M12.8016 38.5065C24.0502 38.7146 23.09 35.8626 32.3926 34.7373C34.4396 34.2545 34.1611 32.651 32.1894 32.9831C22.2892 34.0974 26.0715 37.3838 12.8346 36.4567C9.60116 36.1669 10.3105 38.2891 12.8016 38.5065Z" fill="#B93C3C"/>
<path fill-rule="evenodd" clip-rule="evenodd" d="M22.407 32.887C22.5133 32.4435 21.4311 31.846 20.9222 32.6327C20.4636 33.5003 20.3512 34.0275 19.8972 34.6496C19.7052 34.9311 19.7253 35.5193 19.9624 35.6692C20.8529 36.2771 20.7466 36.1299 21.3665 37.1769L23.6037 36.7862C22.8054 35.9058 22.6944 35.999 22.3336 35.0803C22.1161 34.0674 22.1472 33.9708 22.407 32.887Z" fill="#B93C3C"/>
<path fill-rule="evenodd" clip-rule="evenodd" d="M24.8741 28.4713C24.6258 28.2535 24.4826 28.1811 24.1919 28.5309L22.6513 30.385C22.5178 30.5627 22.5363 30.805 22.6701 30.9332L23.7617 31.815C24.2806 32.24 24.4319 32.5656 24.1986 33.1415C23.9155 34.2302 23.7274 35.3254 23.7666 35.9128L26.0586 35.3265C25.5296 34.2867 25.5149 34.007 26.1653 32.9224C26.7148 32.1743 27.291 31.9638 26.6658 31.0623L24.8741 28.4713Z" fill="#B93C3C"/>
<path fill-rule="evenodd" clip-rule="evenodd" d="M28.1056 37.0785C27.8444 37.1014 27.5474 37.1663 27.2353 37.2294C24.4234 37.9444 22.4662 39.1581 17.7139 39.4056C17.0729 39.4649 16.5583 39.8505 16.6239 40.3406C16.7646 41.4228 18.0666 47.0932 18.1782 47.6047C18.3335 48.3011 19.3203 48.2779 19.3952 47.6467C19.4089 47.5311 19.3815 47.2101 19.3291 46.7679C19.3783 46.637 19.4632 46.5326 19.5616 46.5059L25.769 45.3995C25.8327 45.3947 25.8855 45.4496 25.9267 45.5329C26.0712 47.7432 26.2333 49.9028 26.3467 50.6542C26.3748 50.8199 26.3823 50.9963 26.5622 51.1317C26.9895 51.4299 29.2222 51.0498 29.7723 50.6354C29.9232 50.503 29.9766 50.4424 29.9767 50.1938C29.3251 46.4902 29.1617 41.7223 29.088 38.0053C29.0819 37.1813 28.6804 37.0281 28.1056 37.0785ZM25.3044 39.1782C25.9116 38.9713 25.6784 40.8966 25.4666 40.9205L19.0519 41.9919C18.4792 41.9287 18.3906 40.6042 18.7688 40.5531C21.6849 40.1989 22.6626 39.8605 25.3044 39.1782ZM25.5703 42.3801C25.7563 42.3494 25.9107 43.7205 25.6493 43.7656L19.4021 44.8429C18.9407 44.756 18.8093 43.5714 19.1965 43.4788L25.5703 42.3801Z" fill="#B93C3C"/>
<path fill-rule="evenodd" clip-rule="evenodd" d="M23.0954 39.3745L20.9899 39.6289L21.2789 49.6225C21.2953 50.7597 21.97 51.8423 22.7125 51.7941L24.7074 50.8953L23.0954 39.3745Z" fill="#B93C3C"/>
<path fill-rule="evenodd" clip-rule="evenodd" d="M17.4311 51.887L17.6011 52.7603C23.7326 54.2466 22.0901 51.4187 28.0939 50.1661L27.9769 49.631C23.3103 49.7088 21.038 51.6962 17.4311 51.887Z" fill="#B93C3C"/>
<path fill-rule="evenodd" clip-rule="evenodd" d="M16.2917 45.4114C15.6278 43.882 14.1994 44.3188 14.5907 45.6581C16.5338 50.2949 17.209 52.8965 17.4452 53.2477C18.8052 55.1454 19.5949 54.5481 19.5165 52.7972C19.4821 52.2638 17.5358 48.1586 16.2917 45.4114Z" fill="#B93C3C"/>
<path fill-rule="evenodd" clip-rule="evenodd" d="M11.8833 49.006C10.953 48.9431 11.1361 50.0764 11.6276 50.2772C18.4527 52.6083 25.139 48.1143 31.1124 47.9429C31.342 47.9637 31.7107 48.0636 32.0539 48.2148C33.1516 48.6772 32.6512 50.321 32.1626 50.6922C29.8926 51.9799 30.3503 50.8608 27.805 52.318C27.569 52.5002 26.9234 52.6824 26.6704 52.6037C25.6599 52.3626 24.8027 51.8707 24.1168 51.426L22.9426 52.1533C23.7834 53.0313 24.9418 53.3803 25.9041 53.7055C26.6757 53.9935 27.4824 53.8831 28.0222 53.8527C30.7822 53.6494 33.2676 52.3652 34.5507 52.0916C34.9252 52.0002 35.3096 51.3033 35.4549 50.9825C36.3665 49.1468 35.9011 48.889 34.9977 47.1295C34.5152 46.4822 33.276 46.3937 32.6264 46.3628C25.9353 46.6634 17.6278 49.7563 11.8833 49.006Z" fill="#B93C3C"/>
<path fill-rule="evenodd" clip-rule="evenodd" d="M11.452 24.8771C9.67178 24.6507 9.94762 26.5621 11.519 26.8297C18.1161 28.3505 22.2696 24.0843 26.7215 23.7866C28.9627 23.7205 30.7325 25.3154 32.7604 24.8766C36.5312 23.7409 34.2379 21.3445 32.2559 21.1923C30.6639 21.0596 29.1826 20.6286 26.4108 21.2865C21.0463 22.8134 15.8724 25.7177 11.452 24.8771Z" fill="black"/>
<path fill-rule="evenodd" clip-rule="evenodd" d="M15.2866 18.379C14.5936 18.5981 14.385 20.2034 15.4983 20.3087C19.2647 19.9688 23.4448 18.1355 27.6623 17.1794C28.3782 16.9658 28.3739 15.5125 28.379 15.0101C28.4721 14.2137 27.9153 14.0351 27.2886 14.2333C23.1164 15.6809 19.4958 17.3538 15.2866 18.379Z" fill="black"/>
</g>
<rect x="1.08335" y="9.90587" width="37.8763" height="53.2133" rx="4" transform="rotate(-5 1.08335 9.90587)" stroke="black" stroke-width="2"/>
<defs>
<clipPath id="clip0_330_3587">
<rect x="69.5986" y="3.88838" width="39.8763" height="55.2133" rx="5" transform="rotate(5 69.5986 3.88838)" fill="white"/>
</clipPath>
<clipPath id="clip1_330_3587">
<rect width="33.0636" height="44.0849" fill="white" transform="translate(72.6235 9.69556) rotate(5)"/>
</clipPath>
<clipPath id="clip2_330_3587">
<rect x="34.939" width="39.8763" height="55.2133" rx="5" fill="white"/>
</clipPath>
<clipPath id="clip3_330_3587">
<rect y="8.99683" width="39.8763" height="55.2133" rx="5" transform="rotate(-5 0 8.99683)" fill="white"/>
</clipPath>
</defs>
</svg>
