<svg width="110" height="64" viewBox="0 0 110 64" fill="none" xmlns="http://www.w3.org/2000/svg">
<g clip-path="url(#clip0_330_3653)">
<path d="M104.678 6.95745L74.4772 4.3152C71.4453 4.04994 68.7725 6.29271 68.5073 9.32455L64.6557 53.3484C64.3904 56.3803 66.6332 59.0531 69.665 59.3184L99.8661 61.9606C102.898 62.2259 105.571 59.9831 105.836 56.9513L109.688 12.9274C109.953 9.89553 107.71 7.2227 104.678 6.95745Z" fill="#F5F0EB"/>
<g clip-path="url(#clip1_330_3653)">
<path fill-rule="evenodd" clip-rule="evenodd" d="M97.3636 21.0558C90.3943 22.2916 87.6812 22.6326 78.709 24.1647C78.1143 24.102 76.9026 23.9041 76.421 22.9127C75.9554 22.2171 75.3491 22.8942 75.32 23.5623C75.2801 24.4808 75.2388 25.2469 75.6275 25.7134C77.8145 28.1119 78.4232 30.5296 78.5338 33.2408C78.4475 33.8097 77.9302 34.2946 78.7918 34.3308C79.6614 34.3423 88.107 34.4123 94.2245 35.4936C94.7295 35.5905 94.8593 35.1419 94.8417 34.9512C94.692 33.3211 98.1034 28.4479 99.2791 26.4363C99.5214 26.0217 100.619 26.063 100.856 26.0278C100.841 26.0303 101.187 25.866 101.014 25.6086C99.965 24.0468 97.7848 20.9622 97.3636 21.0558ZM94.6923 24.6834C95.6893 24.7782 96.1424 25.0792 95.6914 25.6946C94.2567 28.0373 92.3963 32.701 91.9667 32.589C85.2397 31.9541 82.2739 32.1904 81.6248 31.9107C81.3912 31.8 81.2698 29.1249 79.9073 27.0939C79.6931 26.7745 79.8112 26.5661 80.2082 26.5055C82.5174 26.1968 91.4355 24.3736 94.6923 24.6834Z" fill="#B93C3C"/>
<path fill-rule="evenodd" clip-rule="evenodd" d="M84.6736 14.1142C84.6746 14.466 84.5678 15.1538 85.0929 15.4008C85.5597 15.4911 86.666 16.506 86.3055 17.9221C84.934 33.6886 85.1152 34.7389 83.7962 46.906C82.9383 51.2755 83.7705 53.7063 84.0658 54.2812C84.2637 54.8556 84.5393 54.789 84.6932 54.4577C86.0449 51.5479 86.3509 53.5415 86.6819 45.9328C87.7351 33.3329 88.7565 19.431 90.6874 18.5717C91.466 18.0513 92.5805 16.3121 92.3904 15.8695C92.6872 15.4749 88.5401 10.9644 88.129 11.3125C87.4518 11.9329 84.8935 12.8858 84.6736 14.1142Z" fill="#B93C3C"/>
</g>
</g>
<rect x="70.5077" y="4.97173" width="37.8763" height="53.2133" rx="4" transform="rotate(5 70.5077 4.97173)" stroke="black" stroke-width="2"/>
<g clip-path="url(#clip2_330_3653)">
<path d="M70.1525 0H39.836C36.7926 0 34.3254 2.46718 34.3254 5.51061V49.7027C34.3254 52.7461 36.7926 55.2133 39.836 55.2133H70.1525C73.1959 55.2133 75.6631 52.7461 75.6631 49.7027V5.51061C75.6631 2.46718 73.1959 0 70.1525 0Z" fill="#F5F0EB"/>
<g clip-path="url(#clip3_330_3653)">
<path fill-rule="evenodd" clip-rule="evenodd" d="M64.0945 14.6822C57.2593 16.5207 54.5863 17.0969 45.7818 19.4052C45.1839 19.3945 43.9595 19.3029 43.3933 18.3573C42.8689 17.705 42.3239 18.4324 42.3532 19.1004C42.3934 20.0189 42.4191 20.7857 42.847 21.2166C45.2346 23.4153 46.0518 25.7708 46.3983 28.4619C46.3618 29.0363 45.8888 29.5644 46.7502 29.5253C47.6175 29.461 56.0371 28.7947 62.2256 29.3387C62.7372 29.3912 62.8273 28.933 62.7932 28.7446C62.502 27.1337 65.4756 21.9817 66.4716 19.8753C66.6768 19.4412 67.774 19.3866 68.0072 19.3309C67.9918 19.3347 68.3226 19.1409 68.128 18.8995C66.9466 17.4351 64.5059 14.5523 64.0945 14.6822ZM61.7494 18.5289C62.7509 18.5364 63.2285 18.7968 62.8328 19.4491C61.6079 21.9079 60.1609 26.7161 59.7232 26.6419C52.9665 26.5957 50.0326 27.0896 49.3615 26.8675C49.1192 26.7777 48.7651 24.1233 47.2308 22.2188C46.9895 21.9193 47.089 21.7013 47.4792 21.6064C49.7528 21.0976 58.478 18.5041 61.7494 18.5289Z" fill="#B93C3C"/>
<path fill-rule="evenodd" clip-rule="evenodd" d="M50.8479 8.87302C50.8795 9.22345 50.8331 9.91789 51.3777 10.1182C51.8506 10.1675 53.0411 11.0821 52.8055 12.5243C52.8133 28.3503 53.0853 29.3808 52.8318 41.6165C52.358 46.0442 53.3989 48.3932 53.7432 48.9402C53.9904 49.4952 54.2591 49.4048 54.3836 49.0613C55.4765 46.0447 55.9551 48.0041 55.6217 40.3956C55.5728 27.7518 55.3786 13.8138 57.2273 12.7894C57.9575 12.2031 58.9162 10.3735 58.6882 9.94912C58.9496 9.53017 54.4252 5.39826 54.0459 5.78081C53.4254 6.45786 50.9599 7.63016 50.8479 8.87302Z" fill="#B93C3C"/>
</g>
</g>
<rect x="35.939" y="1" width="37.8763" height="53.2133" rx="4" stroke="black" stroke-width="2"/>
<g clip-path="url(#clip4_330_3653)">
<path d="M35.0797 5.92776L4.87855 8.57001C1.84671 8.83526 -0.396055 11.5081 -0.130803 14.5399L3.72079 58.5638C3.98604 61.5957 6.65887 63.8384 9.69071 63.5732L39.8918 60.9309C42.9237 60.6657 45.1664 57.9928 44.9012 54.961L41.0496 10.9371C40.7843 7.90527 38.1115 5.66251 35.0797 5.92776Z" fill="#F5F0EB"/>
<g clip-path="url(#clip5_330_3653)">
<path fill-rule="evenodd" clip-rule="evenodd" d="M30.3243 21.0821C23.6755 23.5093 21.0628 24.3163 12.493 27.3831C11.8964 27.4247 10.6687 27.4401 10.0223 26.5474C9.44302 25.9433 8.9635 26.7154 9.05087 27.3783C9.171 28.2898 9.26345 29.0515 9.72724 29.4434C12.2975 31.4257 13.3167 33.701 13.8965 36.3517C13.9102 36.927 13.4851 37.4944 14.3398 37.3804C15.1982 37.2407 23.5277 35.8431 29.74 35.8457C30.2542 35.8534 30.304 35.3891 30.2537 35.2044C29.8232 33.625 32.3364 28.2335 33.145 26.0482C33.3117 25.5979 34.3999 25.4479 34.6274 25.3721C34.6124 25.3772 34.925 25.1553 34.7101 24.9318C33.4056 23.5759 30.7229 20.9168 30.3243 21.0821ZM28.3235 25.1185C29.3218 25.0387 29.8203 25.2565 29.483 25.9408C28.477 28.497 27.4546 33.413 27.0121 33.3773C20.2771 33.9201 17.3974 34.6678 16.7095 34.5051C16.4602 34.4367 15.8762 31.8233 14.1817 30.0598C13.9153 29.7824 13.9954 29.5566 14.3758 29.428C16.5964 28.723 25.0624 25.379 28.3235 25.1185Z" fill="#B93C3C"/>
<path fill-rule="evenodd" clip-rule="evenodd" d="M16.6218 16.4495C16.6838 16.7959 16.6981 17.4917 17.2581 17.6438C17.7335 17.6517 18.9992 18.4591 18.8901 19.9163C20.2772 35.6814 20.638 36.6843 21.4519 48.8955C21.3658 53.3477 22.6075 55.597 22.9981 56.1119C23.2928 56.6432 23.5526 56.5297 23.6466 56.1767C24.4725 53.0764 25.12 54.9866 24.1248 47.4361C22.974 34.8447 21.5658 20.9766 23.3182 19.7951C23.9946 19.1473 24.7902 17.2411 24.5261 16.8382C24.7499 16.3981 19.8826 12.6762 19.5381 13.0904C18.979 13.8189 16.625 15.2016 16.6218 16.4495Z" fill="#B93C3C"/>
</g>
</g>
<rect x="1.08335" y="9.90587" width="37.8763" height="53.2133" rx="4" transform="rotate(-5 1.08335 9.90587)" stroke="black" stroke-width="2"/>
<defs>
<clipPath id="clip0_330_3653">
<rect x="69.5986" y="3.88838" width="39.8763" height="55.2133" rx="5" transform="rotate(5 69.5986 3.88838)" fill="white"/>
</clipPath>
<clipPath id="clip1_330_3653">
<rect width="33.0636" height="44.0849" fill="white" transform="translate(72.6265 9.66319) rotate(5)"/>
</clipPath>
<clipPath id="clip2_330_3653">
<rect x="34.939" width="39.8763" height="55.2133" rx="5" fill="white"/>
</clipPath>
<clipPath id="clip3_330_3653">
<rect width="33.0636" height="44.0849" fill="white" transform="translate(38.4585 5.48895)"/>
</clipPath>
<clipPath id="clip4_330_3653">
<rect y="8.99683" width="39.8763" height="55.2133" rx="5" transform="rotate(-5 0 8.99683)" fill="white"/>
</clipPath>
<clipPath id="clip5_330_3653">
<rect width="33.0636" height="44.0849" fill="white" transform="translate(3.98462 14.1581) rotate(-5)"/>
</clipPath>
</defs>
</svg>
